 http://img210.imageshack.us/img210/5512/exdp.jpg
Format                                   : Matroska
Format version                           : Version 2
File size                                : 694 MiB
Duration                                 : 1h 45mn
Overall bit rate                         : 916 Kbps
Movie name                               : Men in Black 3 (2012).4800p.BRRip.x264.[Dual Audio].6Ch.[Hindi+English].by K@rtik [ExD Exclusive]
Format                                   : AVC
Format/Info                              : Advanced Video Codec
Format settings, ReFrames                : 5 frames
Duration                                 : 1h 45mn
Bit rate                                 : 660 Kbps
Width                                    : 720 pixels
Height                                   : 354 pixels
Display aspect ratio                     : 2.034
Frame rate                               : 23.976 fps
Stream size                              : 486 MiB (70%)
Title                                    : K@rtik
Codec ID                                 : A_AC3
Duration                                 : 1h 45mn
Bit rate                                 : 128 Kbps
Channel(s)                               : 2 channels
Channel positions                        : Front: L R
Sampling rate                            : 48.0 KHz
Stream size                              : 96.9 MiB (14%)
Title                                    : K@rtik
Codec ID                                 : A_AC3
Duration                                 : 1h 45mn
Bit rate mode                            : Constant
Bit rate                                 : 128 Kbps
Channel(s)                               : 2 channels
Channel positions                        : Front: L R
Sampling rate                            : 48.0 KHz
Stream size                              : 96.9 MiB (14%)
Title                                    : K@rtik
Language                                 : English 
http://img441.imageshack.us/img441/2651/41846703.png 
http://img213.imageshack.us/img213/3307/26398332.png 
http://img42.imageshack.us/img42/5182/66945235.png 
http://img266.imageshack.us/img266/8730/98357728.png 
http://img155.imageshack.us/img155/1694/48749427.png 
http://img411.imageshack.us/img411/3958/78917007.png 
http://img341.imageshack.us/img341/3864/44864453.png 
http://img707.imageshack.us/img707/7056/75356328.png 
http://img217.imageshack.us/img217/6986/62600731.png 
http://img513.imageshack.us/img513/4060/22233117.png 
http://img28.imageshack.us/img28/1428/46313765.png







 